<svg xmlns="http://www.w3.org/2000/svg" viewBox="0 0 64 64">
  <defs>
    <linearGradient id="g" x1="0" y1="0" x2="1" y2="1">
      <stop offset="0%" stop-color="#7aa2ff" />
      <stop offset="100%" stop-color="#6b73ff" />
    </linearGradient>
    <filter id="s" x="-20%" y="-20%" width="140%" height="140%">
      <feDropShadow dx="0" dy="2" stdDeviation="3" flood-color="#2b3b60" flood-opacity="0.18"/>
    </filter>
  </defs>
  <g filter="url(#s)">
    <rect x="2" y="2" width="60" height="60" rx="12" fill="url(#g)" />
    <rect x="4" y="4" width="56" height="56" rx="10" fill="rgba(255,255,255,0.08)"/>
  </g>
  <g transform="translate(0,0)">
    <path d="M36.5 20c-4.5 0-7 2.8-7 6.2 0 2.5 1.6 4.1 4 4.8l1.6.5c2 .7 3.2 1.4 3.2 3.2 0 2.2-1.9 3.7-4.8 3.7-3.2 0-5.2-1.3-6.4-2.6l2.6-3.2c.8.9 2 1.7 3.7 1.7 1.1 0 1.9-.5 1.9-1.3 0-.9-.6-1.3-2.1-1.9l-1.8-.6c-3.3-1.2-4.8-2.9-4.8-5.8 0-3.5 3.1-6.1 7.3-6.1 3.8 0 6.7 1.5 8.4 3.8l-2.8 2.8c-1.1-1.2-2.7-2-5.2-2z" fill="#fff"/>
  </g>
</svg>
